<svg width="229" height="116" viewBox="0 0 229 116" fill="none" xmlns="http://www.w3.org/2000/svg">
<path d="M172.557 -9.07572e-06H55.9212C25.0799 -9.07572e-06 0 26.8133 0 57.7958C0 88.7784 25.0813 115.592 55.9199 115.592H172.557C203.397 115.592 228.477 88.7784 228.477 57.7958C228.477 26.8146 203.397 -9.07572e-06 172.557 -9.07572e-06ZM162.17 73.8531H66.2998C57.5159 73.8531 50.3199 66.6305 50.3199 57.7958C50.3199 48.9612 57.5079 41.7386 66.2998 41.7386H162.168C170.953 41.7386 178.149 48.9612 178.149 57.7958C178.149 66.6305 170.96 73.8545 162.168 73.8545" fill="currentColor"/>
</svg>
