<svg width="549" height="72" viewBox="0 0 549 72" fill="none" xmlns="http://www.w3.org/2000/svg">
<path d="M92.0605 71.5L147.961 1.5H113.639L74.8887 50.001L74.498 50.4893L74.1074 50.001L35.3564 1.5H1.03906L56.9395 71.5H92.0605Z" stroke="currentColor" stroke-width="0.5"/>
<mask id="path-2-inside-1_1_14" fill="white">
<path d="M246.245 1.79996e-06H173.755C154.587 1.79996e-06 139 16.7015 139 36C139 55.2985 154.588 72 173.755 72H246.245C265.413 72 281 55.2985 281 36C281 16.7023 265.413 1.79996e-06 246.245 1.79996e-06ZM239.79 46.0018H180.206C174.747 46.0018 170.274 41.5029 170.274 36C170.274 30.4971 174.742 25.9982 180.206 25.9982H239.788C245.248 25.9982 249.721 30.4971 249.721 36C249.721 41.5029 245.253 46.0026 239.788 46.0026"/>
</mask>
<path d="M246.245 0V1H173.755V0V-1H246.245V0ZM173.755 0V1C155.182 1 140 17.2101 140 36H139H138C138 16.1929 153.992 -1 173.755 -1V0ZM139 36H140C140 54.7899 155.183 71 173.755 71V72V73C153.993 73 138 55.8071 138 36H139ZM173.755 72V71H246.245V72V73H173.755V72ZM246.245 72V71C264.818 71 280 54.7899 280 36H281H282C282 55.8071 266.008 73 246.245 73V72ZM281 36H280C280 17.2109 264.818 1 246.245 1V0V-1C266.008 -1 282 16.1937 282 36H281ZM239.79 46.0018V47.0018H180.206V46.0018V45.0018H239.79V46.0018ZM180.206 46.0018V47.0018C174.188 47.0018 169.274 42.0489 169.274 36H170.274H171.274C171.274 40.957 175.305 45.0018 180.206 45.0018V46.0018ZM170.274 36H169.274C169.274 29.9514 174.183 24.9982 180.206 24.9982V25.9982V26.9982C175.3 26.9982 171.274 31.0427 171.274 36H170.274ZM180.206 25.9982V24.9982H239.788V25.9982V26.9982H180.206V25.9982ZM239.788 25.9982V24.9982C245.807 24.9982 250.721 29.951 250.721 36H249.721H248.721C248.721 31.0431 244.69 26.9982 239.788 26.9982V25.9982ZM249.721 36H250.721C250.721 42.0486 245.812 47.0026 239.788 47.0026V46.0026V45.0026C244.694 45.0026 248.721 40.9573 248.721 36H249.721Z" fill="none" stroke="currentColor" stroke-width="0.5" mask="url(#path-2-inside-1_1_14)"/>
<path d="M360.802 71.5V47.416L360.991 47.2666L418.566 1.5H378.476L345.812 27.5625L345.5 27.8115L345.188 27.5625L312.525 1.5H272.434L330.01 47.2666L330.198 47.416V71.5H360.802Z" stroke="currentColor" stroke-width="0.5"/>
<path d="M548.5 71.5V48.1582H479.756L479.603 47.1816L548.5 24.9785V1.5H425.5V24.8418H494.24L494.394 25.8184L425.5 48.0225V71.5H548.5Z" stroke="currentColor" stroke-width="0.5"/>
</svg>
